<svg xmlns="http://www.w3.org/2000/svg" width="1200" height="675" viewBox="0 0 1200 675" role="img" aria-labelledby="title desc">
  <title id="title">OpenAI Codex April 2026 update</title>
  <desc id="desc">Editorial illustration showing a developer workspace with multiple agent panels and code surfaces.</desc>
  <defs>
    <linearGradient id="bg" x1="0" x2="1" y1="0" y2="1">
      <stop offset="0%" stop-color="#0b1020"/>
      <stop offset="100%" stop-color="#132b52"/>
    </linearGradient>
    <linearGradient id="accent" x1="0" x2="1">
      <stop offset="0%" stop-color="#60a5fa"/>
      <stop offset="100%" stop-color="#22d3ee"/>
    </linearGradient>
  </defs>
  <rect width="1200" height="675" fill="url(#bg)"/>
  <circle cx="980" cy="110" r="120" fill="#1d4ed8" opacity="0.15"/>
  <circle cx="170" cy="560" r="160" fill="#06b6d4" opacity="0.12"/>
  <rect x="110" y="120" width="980" height="420" rx="28" fill="#0f172a" stroke="#334155"/>
  <rect x="150" y="160" width="250" height="340" rx="18" fill="#111827" stroke="#475569"/>
  <rect x="435" y="160" width="300" height="150" rx="18" fill="#111827" stroke="#475569"/>
  <rect x="435" y="330" width="300" height="170" rx="18" fill="#111827" stroke="#475569"/>
  <rect x="770" y="160" width="280" height="340" rx="18" fill="#111827" stroke="#475569"/>
  <rect x="175" y="195" width="130" height="18" rx="9" fill="url(#accent)" opacity="0.9"/>
  <rect x="175" y="235" width="190" height="10" rx="5" fill="#64748b"/>
  <rect x="175" y="258" width="160" height="10" rx="5" fill="#64748b"/>
  <rect x="175" y="300" width="190" height="78" rx="12" fill="#0b1220" stroke="#334155"/>
  <rect x="175" y="395" width="80" height="80" rx="16" fill="#1e293b"/>
  <rect x="270" y="395" width="95" height="80" rx="16" fill="#1e293b"/>
  <rect x="465" y="190" width="145" height="18" rx="9" fill="url(#accent)"/>
  <rect x="465" y="230" width="230" height="10" rx="5" fill="#64748b"/>
  <rect x="465" y="252" width="210" height="10" rx="5" fill="#64748b"/>
  <rect x="465" y="360" width="230" height="12" rx="6" fill="#64748b"/>
  <rect x="465" y="388" width="190" height="12" rx="6" fill="#64748b"/>
  <rect x="465" y="420" width="120" height="54" rx="14" fill="#0ea5e9" opacity="0.25" stroke="#38bdf8"/>
  <rect x="805" y="195" width="170" height="18" rx="9" fill="url(#accent)"/>
  <rect x="805" y="235" width="210" height="10" rx="5" fill="#64748b"/>
  <rect x="805" y="258" width="180" height="10" rx="5" fill="#64748b"/>
  <path d="M880 335 C930 285, 980 285, 1015 335" fill="none" stroke="#38bdf8" stroke-width="10" stroke-linecap="round"/>
  <path d="M835 395 L910 450 L1010 360" fill="none" stroke="#22d3ee" stroke-width="10" stroke-linecap="round" stroke-linejoin="round"/>
  <text x="110" y="610" fill="#e2e8f0" font-size="34" font-family="Inter, Arial, sans-serif" font-weight="700">OpenAI Codex, April 2026</text>
  <text x="110" y="645" fill="#93c5fd" font-size="20" font-family="Inter, Arial, sans-serif">Multi-agent workflows, review, and recurring development tasks</text>
</svg>
