<svg xmlns="http://www.w3.org/2000/svg" viewBox="0 0 800 450" width="800" height="450" role="img" aria-label="Central sandbox with one blocked internet path and two approved capability paths">
  <defs>
    <linearGradient id="bg" x1="0" y1="0" x2="1" y2="1">
      <stop offset="0%" stop-color="#111629"/>
      <stop offset="100%" stop-color="#1a1333"/>
    </linearGradient>
    <linearGradient id="sandboxGlow" x1="0" y1="0" x2="1" y2="1">
      <stop offset="0%" stop-color="#61e7ff"/>
      <stop offset="100%" stop-color="#8d6bff"/>
    </linearGradient>
    <linearGradient id="okPath" x1="0" y1="0" x2="1" y2="0">
      <stop offset="0%" stop-color="#57f3c3"/>
      <stop offset="100%" stop-color="#6ac6ff"/>
    </linearGradient>
    <filter id="softGlow" x="-30%" y="-30%" width="160%" height="160%">
      <feGaussianBlur stdDeviation="8" result="blur"/>
      <feMerge>
        <feMergeNode in="blur"/>
        <feMergeNode in="SourceGraphic"/>
      </feMerge>
    </filter>
  </defs>

  <rect width="800" height="450" rx="28" fill="url(#bg)"/>

  <g opacity="0.14" stroke="#89a2ff" stroke-width="1.5" fill="none">
    <circle cx="120" cy="78" r="46"/>
    <circle cx="706" cy="86" r="54"/>
    <circle cx="86" cy="360" r="58"/>
    <circle cx="724" cy="346" r="64"/>
  </g>

  <g filter="url(#softGlow)">
    <rect x="258" y="108" width="284" height="234" rx="34" fill="#12172b" stroke="url(#sandboxGlow)" stroke-width="8"/>
    <rect x="282" y="132" width="236" height="186" rx="24" fill="#171d35" stroke="#6ee3ff" stroke-opacity="0.32" stroke-width="2"/>
  </g>

  <g opacity="0.95">
    <rect x="320" y="168" width="54" height="54" rx="14" fill="#212846" stroke="#72ebff" stroke-width="3"/>
    <rect x="393" y="168" width="54" height="54" rx="14" fill="#212846" stroke="#8e7dff" stroke-width="3"/>
    <rect x="360" y="234" width="54" height="54" rx="14" fill="#212846" stroke="#57f3c3" stroke-width="3"/>
    <path d="M347 195h46M420 195h-46M387 222v22" stroke="#d7e2ff" stroke-width="5" stroke-linecap="round"/>
  </g>

  <g fill="none" stroke-linecap="round" stroke-width="12">
    <path d="M208 225h-68" stroke="#ff5f7a"/>
    <path d="M542 182c44 0 55 0 89 0" stroke="url(#okPath)"/>
    <path d="M542 268c45 0 57 0 89 0" stroke="url(#okPath)"/>
  </g>

  <g>
    <circle cx="100" cy="225" r="48" fill="#2b1630" stroke="#ff5f7a" stroke-width="6"/>
    <path d="M76 225h48M100 201c12 12 12 36 0 48M87 189c-7 9-11 22-11 36s4 27 11 36M113 189c7 9 11 22 11 36s-4 27-11 36" stroke="#ffd6de" stroke-width="4" fill="none" stroke-linecap="round"/>
    <circle cx="100" cy="225" r="55" fill="none" stroke="#ff5f7a" stroke-width="10" opacity="0.95"/>
    <path d="M66 191l68 68" stroke="#ff5f7a" stroke-width="12" stroke-linecap="round"/>
  </g>

  <g filter="url(#softGlow)">
    <rect x="636" y="142" width="92" height="82" rx="22" fill="#112436" stroke="#59f0c5" stroke-width="5"/>
    <path d="M659 192h46M659 173h46M667 156h14v54h-14z" fill="none" stroke="#d8fff4" stroke-width="4" stroke-linecap="round" stroke-linejoin="round"/>

    <rect x="636" y="226" width="92" height="82" rx="22" fill="#142040" stroke="#6ac6ff" stroke-width="5"/>
    <path d="M663 267h38M665 252h34M665 282h28" fill="none" stroke="#deebff" stroke-width="4" stroke-linecap="round"/>
    <circle cx="700" cy="252" r="6" fill="#deebff"/>
  </g>

  <g opacity="0.9" fill="#dce8ff">
    <circle cx="214" cy="225" r="8"/>
    <circle cx="587" cy="182" r="8"/>
    <circle cx="587" cy="268" r="8"/>
  </g>
</svg>
